<svg id="圖層_1" data-name="圖層 1" xmlns="http://www.w3.org/2000/svg" xmlns:xlink="http://www.w3.org/1999/xlink" viewBox="0 0 173.32 80"><defs><style>.cls-1{fill:none;}.cls-2{fill:#3e3a39;}.cls-3{fill:url(#未命名漸層_15);}.cls-4{fill:url(#未命名漸層_51);}.cls-5{fill:#3d3a39;}.cls-6{fill:url(#未命名漸層_8);}.cls-7{fill:#005cb9;}.cls-8{fill:#4c4948;}.cls-9{fill:#fff;}.cls-10{clip-path:url(#clip-path);}.cls-11{fill:url(#未命名漸層_22);}.cls-12{fill:url(#未命名漸層_22-2);}.cls-13{fill:url(#未命名漸層_22-3);}.cls-14{fill:url(#未命名漸層_22-4);}.cls-15{fill:url(#未命名漸層_22-5);}</style><radialGradient id="未命名漸層_15" cx="96.98" cy="36.39" r="55.02" gradientUnits="userSpaceOnUse"><stop offset="0" stop-color="#fff"/><stop offset="0.08" stop-color="#f6f9fb"/><stop offset="0.22" stop-color="#dee8f1"/><stop offset="0.4" stop-color="#b6cee0"/><stop offset="0.6" stop-color="#7fa8c8"/><stop offset="0.83" stop-color="#3a79aa"/><stop offset="1" stop-color="#005291"/><stop offset="1" stop-color="gray"/></radialGradient><radialGradient id="未命名漸層_51" cx="96.98" cy="36.39" fx="85.4665604263896" r="60.96" gradientTransform="translate(34.22 -49.45) rotate(29.61) scale(1 1.2)" gradientUnits="userSpaceOnUse"><stop offset="0" stop-color="#fff"/><stop offset="1" stop-color="gray"/></radialGradient><radialGradient id="未命名漸層_8" cx="98.8" cy="35.93" r="36.53" gradientUnits="userSpaceOnUse"><stop offset="0" stop-color="#fff"/><stop offset="0.08" stop-color="#f6f6f6"/><stop offset="0.22" stop-color="#dedede"/><stop offset="0.4" stop-color="#b6b6b6"/><stop offset="0.6" stop-color="#7f7f7f"/><stop offset="0.83" stop-color="#3a3a3a"/><stop offset="1"/></radialGradient><clipPath id="clip-path"><rect class="cls-1" x="-0.93" y="66.78" width="157.55" height="25.04"/></clipPath><linearGradient id="未命名漸層_22" x1="109.78" y1="56.21" x2="109.96" y2="81.34" gradientUnits="userSpaceOnUse"><stop offset="0" stop-color="#fff"/><stop offset="0.12" stop-color="#fbfbfb"/><stop offset="0.25" stop-color="#efefef"/><stop offset="0.38" stop-color="#dbdbdb"/><stop offset="0.5" stop-color="#bebebe"/><stop offset="0.63" stop-color="#9a9a9a"/><stop offset="0.76" stop-color="#6d6d6d"/><stop offset="0.88" stop-color="#393939"/><stop offset="1"/></linearGradient><linearGradient id="未命名漸層_22-2" x1="90.23" y1="56.35" x2="90.41" y2="81.48" xlink:href="#未命名漸層_22"/><linearGradient id="未命名漸層_22-3" x1="141.86" y1="55.99" x2="142.03" y2="81.12" xlink:href="#未命名漸層_22"/><linearGradient id="未命名漸層_22-4" x1="34.04" y1="56.75" x2="34.22" y2="81.88" xlink:href="#未命名漸層_22"/><linearGradient id="未命名漸層_22-5" x1="70.59" y1="56.49" x2="70.77" y2="81.62" xlink:href="#未命名漸層_22"/></defs><title>prc-ttsports-logo</title><path class="cls-2" d="M97,70.52c-19.06,0-37-3.42-50.54-9.63-14-6.41-21.65-15.09-21.65-24.44s7.69-18,21.65-24.44C60,5.8,77.92,2.38,97,2.38S134,5.8,147.53,12c14,6.41,21.65,15.09,21.65,24.44s-7.69,18-21.65,24.44C134,67.1,116,70.52,97,70.52Z"/><ellipse class="cls-3" cx="96.98" cy="36.39" rx="70.4" ry="33.15"/><ellipse class="cls-4" cx="96.98" cy="36.39" rx="64.12" ry="31.25"/><path class="cls-5" d="M131.91,18.58H108.49v0h-2.23l.14,0h-2.81c-.94,0-1.79,0-2.59,0l-12.07,0-1.9,0-3,0h-.63c-2.47,0-11.73,0-14.94,0h0c-3.75,0-6.22,0-9,1.19a15.36,15.36,0,0,0-5.32,3.9l-.1.1a18.67,18.67,0,0,0-2.66,4.42l-.55,1.27H64.76l.08-.82c.12-1.26,2-3.56,3.24-4.67a19.46,19.46,0,0,1,3.46-2.35,23.38,23.38,0,0,1,3.28-1,9.3,9.3,0,0,0-2.36,1.76A38,38,0,0,0,67.55,30C65.27,34.29,53.3,56,53.18,56.24l-.75,1.35H68.82l4.45-8.52c.06-.11,6.17-11.7,8.44-16.25s4-7.52,5.06-8.71a8.09,8.09,0,0,1,2.74-2.2,10.14,10.14,0,0,1,3.31-1.21,17.65,17.65,0,0,0-3.6,3.07,18.32,18.32,0,0,0-2.66,4.42L86,29.46H99.87l.08-.83c.12-1.27,2-3.56,3.25-4.66a18.71,18.71,0,0,1,3.45-2.35,12.52,12.52,0,0,1,1.94-.63,8.64,8.64,0,0,0-1.79,1.42A37.87,37.87,0,0,0,101.89,30C99.61,34.29,87.64,56,87.51,56.24l-.74,1.35h16.39l4.45-8.52c.06-.11,6.17-11.7,8.43-16.25.63-1.26,1.21-2.37,1.74-3.37l5,0c.92,0,1.92,0,2.93,0h1.35a17.94,17.94,0,0,0,7.6-1.19,15.32,15.32,0,0,0,5.33-3.9l.1-.1a19.09,19.09,0,0,0,2.65-4.41l.55-1.27Zm-5.78,5.48a19,19,0,0,1-3.44,2.35,27.07,27.07,0,0,1-3.85,1.11,21,21,0,0,1,2.27-3.41,8.09,8.09,0,0,1,2.74-2.2,9.81,9.81,0,0,1,3.38-1.22,3.13,3.13,0,0,0,.45-.07l1.18.14A15.1,15.1,0,0,1,126.13,24.06Z"/><path class="cls-6" d="M131.53,16.42H108.11v0h-2.23l.14,0h-2.81c-.94,0-1.79,0-2.59,0l-12.07,0-1.9,0-3,0H83c-2.46,0-11.72,0-14.93,0h0c-3.75,0-6.22,0-8.95,1.18a15.36,15.36,0,0,0-5.32,3.9l-.1.11A18.32,18.32,0,0,0,51.07,26l-.55,1.27H64.38l.08-.82c.12-1.26,2-3.56,3.24-4.67a19.46,19.46,0,0,1,3.46-2.35,23.38,23.38,0,0,1,3.28-1,9.54,9.54,0,0,0-2.36,1.76,37.87,37.87,0,0,0-4.91,7.57c-2.28,4.31-14.25,26.05-14.38,26.27l-.74,1.34H68.44l4.45-8.51c.06-.12,6.17-11.71,8.44-16.25s4-7.53,5.06-8.72a8.21,8.21,0,0,1,2.74-2.2,10,10,0,0,1,3.31-1.2,17.34,17.34,0,0,0-3.6,3.07A18.13,18.13,0,0,0,86.18,26l-.55,1.27H99.49l.08-.82c.12-1.27,2-3.56,3.25-4.67a19.22,19.22,0,0,1,3.45-2.35,12.52,12.52,0,0,1,1.94-.63,8.38,8.38,0,0,0-1.79,1.42,37.73,37.73,0,0,0-4.91,7.57c-2.28,4.31-14.25,26.05-14.38,26.27l-.74,1.34h16.38l4.46-8.51c.06-.12,6.16-11.71,8.43-16.25.63-1.26,1.21-2.38,1.74-3.38l5,0,2.94,0h1.35a17.78,17.78,0,0,0,7.6-1.2,15.32,15.32,0,0,0,5.33-3.9l.09-.1a18.68,18.68,0,0,0,2.66-4.41l.55-1.27Zm-5.78,5.48a19,19,0,0,1-3.44,2.35,27.07,27.07,0,0,1-3.85,1.11A21,21,0,0,1,120.73,22a8.21,8.21,0,0,1,2.74-2.2,9.81,9.81,0,0,1,3.38-1.22,3.13,3.13,0,0,0,.45-.07l1.17.14A14.79,14.79,0,0,1,125.75,21.9Z"/><path class="cls-7" d="M68.2,17.49c-3.76,0-6.07,0-8.58,1.11a14.53,14.53,0,0,0-5.13,3.81A17.82,17.82,0,0,0,52,26.55H63.66c.16-1.73,2.44-4.27,3.55-5.26a20.82,20.82,0,0,1,3.63-2.48,36.76,36.76,0,0,1,4.67-1.33s-3.55.05-7.31,0"/><path class="cls-7" d="M67.78,54.47l4.2-8s6.14-11.65,8.43-16.23,4-7.61,5.2-8.92a8.92,8.92,0,0,1,3-2.39,10.44,10.44,0,0,1,3.72-1.33c1.24-.12,0-.21-3.88-.24-1.72,0-3.38-.06-4.87-.06a28.8,28.8,0,0,0-4.59.26,14.33,14.33,0,0,0-6.32,3.26,37,37,0,0,0-4.79,7.4c-2.31,4.37-14.38,26.28-14.38,26.28Z"/><path class="cls-7" d="M129.81,17.27c-.17,1.73-2.44,4.26-3.55,5.25A19.81,19.81,0,0,1,122.62,25,35,35,0,0,1,118,26.34s3.55-.05,7.31,0,6.07,0,8.58-1.11a14.71,14.71,0,0,0,5.13-3.8,18,18,0,0,0,2.47-4.14Z"/><path class="cls-7" d="M102.12,54.47l4.2-8s6.13-11.65,8.43-16.23,4-7.61,5.2-8.92a8.92,8.92,0,0,1,3-2.39,10.44,10.44,0,0,1,3.72-1.33c1.23-.12,0-.21-3.89-.24-1.71,0-3.37-.06-4.86-.06a28.73,28.73,0,0,0-4.59.26A14.33,14.33,0,0,0,107,20.79a37,37,0,0,0-4.79,7.4C99.9,32.56,87.83,54.47,87.83,54.47Z"/><path class="cls-7" d="M103.09,17.28c-3.75,0-6.07,0-8.59,1.11a14.63,14.63,0,0,0-5.11,3.8,18,18,0,0,0-2.48,4.15H98.56c.16-1.73,2.43-4.27,3.55-5.26a20.46,20.46,0,0,1,3.63-2.48,34.26,34.26,0,0,1,4.66-1.33s-3.55.05-7.31,0"/><path class="cls-8" d="M107.33,77.9l-7.45,0h-.56a2.22,2.22,0,0,1-2-1,2.36,2.36,0,0,1,.08-2.39c.62-1.11,1.24-2.22,1.87-3.33,1.14-2,2.28-4,3.39-6.1A4.6,4.6,0,0,1,107,62.39h.18c.88,0,1.77,0,2.65,0h10.71a2.11,2.11,0,0,1,2,3.32l-1.69,3.05c-1.26,2.26-2.53,4.52-3.76,6.8a4.21,4.21,0,0,1-3.87,2.29C111.25,77.9,109.29,77.9,107.33,77.9Zm-.1-3.78h.24a1.58,1.58,0,0,0,1.35-.57c.84-1.56,1.73-3.16,2.63-4.77l1.08-2h-.28a7.11,7.11,0,0,0-.92.06,2.44,2.44,0,0,0-.16.19c-.81,1.41-1.59,2.83-2.38,4.25Z"/><path class="cls-8" d="M76,77.88l.77-1.36c0-.1,5.6-9.86,6.5-11.54a4.59,4.59,0,0,1,4.35-2.61h.19c.88,0,1.75,0,2.63,0h10.73a2.11,2.11,0,0,1,2,3.33c-.29.53-.61,1.11-.92,1.69-.61,1.12-1.24,2.27-1.73,3.1a3.49,3.49,0,0,1-2.89,1.65H89l-3.18,5.74Zm15.14-9.69.41,0a5.32,5.32,0,0,0,.62,0l.23,0,.74-1.3h-.28a5.62,5.62,0,0,0-.92.07,1.07,1.07,0,0,0-.16.18Z"/><path class="cls-8" d="M138.16,77.92c-.49,0-1,0-1.23-.6l-.26-.73.45-.25,5.63-10h-1.07c-.2.36-.41.74-.61,1.12-.61,1.11-1.23,2.26-1.73,3.08a3.46,3.46,0,0,1-2.88,1.65H134l2.2,5.73h-7.68l-1.67-4-2.24,4h-9.75l.77-1.36c.05-.1,5.6-9.87,6.5-11.54a4.6,4.6,0,0,1,4.35-2.62h.18c1.86,0,27.89.05,37.7.06h4.92L167,66.35h-2.52c-4.45,0-6.71,0-11.86,0h0c-.46.93-2.63,4.78-3.31,6-3.15,5.57-3.15,5.57-3.73,5.57h-.19ZM130,68.22l.41,0a5.32,5.32,0,0,0,.62,0,.68.68,0,0,0,.23-.06c.27-.47.53-.92.74-1.3h-.29a7,7,0,0,0-.91.06s-.12.12-.17.19Z"/><path class="cls-8" d="M48.7,77.86H31l-1.67-4-2.24,4H.46L2.7,73.94H8.22c4,0,6.32,0,11.22,0h0s0,0,.07-.09.6-1,1.06-1.83l.42-.76h0C22.27,69,24.08,65.84,24.56,65a4.59,4.59,0,0,1,4.34-2.62h.19c.88,0,1.76,0,2.64,0H42.45a2.33,2.33,0,0,1,2.08,1,1.78,1.78,0,0,1,.22.58,4.53,4.53,0,0,1,3.68-1.61h.18c.88,0,1.77,0,2.65,0l3.77,0H62a2.11,2.11,0,0,1,2,3.32l-2.43,4.37H52.13l1.81-3.26h-.28a7,7,0,0,0-.92.06,2.44,2.44,0,0,0-.16.19c-.8,1.4-1.58,2.8-2.36,4.21l-1.61,2.88a2.21,2.21,0,0,0,.33,0l.11,0h.19c.51,0,.65-.08.79-.34.3-.57.69-1.26,1-1.9l.73-1.33h9.38L60.44,72c-.65,1.18-1.31,2.37-1.95,3.56a4.21,4.21,0,0,1-3.87,2.29C52.65,77.86,50.67,77.86,48.7,77.86ZM37.29,74h1.78c.39-.71.8-1.43,1.2-2.15a3.68,3.68,0,0,1-1.38.32H36.44C36.69,72.66,37.28,73.94,37.29,74Zm-4.87-5.79h.41a3.48,3.48,0,0,0,.62,0l.24,0,.73-1.3h-.28a7.26,7.26,0,0,0-.92.07,1.85,1.85,0,0,0-.16.18Z"/><path class="cls-8" d="M59.75,77.86A2,2,0,0,1,58,77a1.94,1.94,0,0,1,0-2l1-1.66a1.41,1.41,0,0,1,1.35-.74h.16l4.67,0h2.69a1.06,1.06,0,0,1,.34,0l1.09.27-.63,1.3a.44.44,0,0,0,.14-.13c.33-.52.63-1.06,1-1.62h-6a2.51,2.51,0,0,1-2.17-1.14A2.34,2.34,0,0,1,61.52,69,38.15,38.15,0,0,1,64,64.62a5,5,0,0,1,4.29-2.22H81.64a2.16,2.16,0,0,1,1.85,1.07,2.2,2.2,0,0,1,.13,2.13c-.33.64-.68,1.26-1.05,1.88a1.28,1.28,0,0,1-1.08.66H72.07l.76-1.31a.83.83,0,0,0-.19.18l-.7,1.25h6.35a2.86,2.86,0,0,1,1.08.18,2,2,0,0,1,1,2.9l-.17.3c-.78,1.43-1.57,2.87-2.4,4.28a3.91,3.91,0,0,1-3.52,2H59.75Z"/><path class="cls-7" d="M165.12,58.44c-9.8,0-36.73,2-38.58,1.9h-.18a4.5,4.5,0,0,0-3.64,1.57,1.67,1.67,0,0,0-.21-.52,2.31,2.31,0,0,0-2.08-1H109.72l-2.65,0h-.18a4.51,4.51,0,0,0-3.56,1.48,2.25,2.25,0,0,0-.19-.45,2.29,2.29,0,0,0-2.08-1H90.34c-.88,0-1.76,0-2.64,0h-.19a4.51,4.51,0,0,0-3.86,1.87,2.29,2.29,0,0,0-.28-.78,2.17,2.17,0,0,0-1.86-1.07H68.13a6.85,6.85,0,0,0-4.66,2c0-.28.59-.79.45-1a2.31,2.31,0,0,0-2.08-1H51.13l-2.65,0H48.3a4.53,4.53,0,0,0-3.68,1.61,1.7,1.7,0,0,0-.22-.58,2.31,2.31,0,0,0-2.08-1h-7l-3.7,0-2.64,0h-.18a4.6,4.6,0,0,0-4.35,2.62c-.48.89-2.28,4.09-3.56,6.34h0l-.42.76c-.46.84-1,1.68-1.05,1.83s-.07.1-.08.1h0l-11.22,0H3.82L1.58,75.77H26.91l2.24-4.05,1.67,4H40.88l7.69,0,5.92,0a4.21,4.21,0,0,0,3.19-1.34,1.82,1.82,0,0,0,.2.48,2,2,0,0,0,1.74.87l10,0h4.58a4.3,4.3,0,0,0,2-.48l-.28.5h9.76S88,71.59,88.82,70.1h8.67a3.56,3.56,0,0,0,1.21-.24c-.48.84-1,1.68-1.42,2.52a2.36,2.36,0,0,0-.07,2.39,2.23,2.23,0,0,0,2,1.06h.57l7.44,0,5.88,0a4.76,4.76,0,0,0,1.89-.4l-.24.42h9.76l2.24-4.06,1.66,4h7.69l-2.21-5.72h2.46a3.49,3.49,0,0,0,2.89-1.65c.49-.82,1.12-2,1.72-3.09l.61-1.12h1.07l-5.63,10-.45.26.26.72c.22.61.74.61,1.24.61l7.25-.05h.19c.59,0,.59,0,3.74-5.58.67-1.18,2.84-5,3.3-6h0l11.85,0h2.52L170,58.44Z"/><path class="cls-7" d="M107.2,74l-7.44,0h-.57a2.22,2.22,0,0,1-2-1.05,2.38,2.38,0,0,1,.07-2.4l1.87-3.32c1.14-2,2.29-4.06,3.39-6.11a4.59,4.59,0,0,1,4.35-2.61h.18l2.65,0h10.71a2.33,2.33,0,0,1,2.08,1,2.27,2.27,0,0,1-.1,2.3l-1.7,3.05c-1.26,2.26-2.52,4.52-3.76,6.79a4.2,4.2,0,0,1-3.87,2.3Zm-.09-3.78h.23a1.57,1.57,0,0,0,1.35-.57c.84-1.56,1.74-3.16,2.63-4.77l1.09-2h-.29a7,7,0,0,0-.91.07,1.22,1.22,0,0,0-.17.19q-1.2,2.11-2.38,4.25C108.14,68.32,107.63,69.25,107.11,70.17Z"/><path class="cls-9" d="M120.43,59.36h-6.94c-2.15,0-4.29,0-6.44,0a3.72,3.72,0,0,0-3.71,2.13c-1.71,3.17-3.51,6.29-5.26,9.44C97.48,72,98,73,99.19,73c4.63,0,9.26,0,13.89,0a3.3,3.3,0,0,0,3.07-1.82c1.8-3.3,3.64-6.57,5.46-9.85C122.22,60.23,121.7,59.36,120.43,59.36Zm-7,3.52c-1.33,2.4-2.69,4.8-4,7.21a2.71,2.71,0,0,1-2.77.92c-.9-.25-.87-.42-.48-1.11,1.35-2.4,2.67-4.83,4-7.23a1.36,1.36,0,0,1,.83-.63,6.84,6.84,0,0,1,2,0C113.63,62.11,113.7,62.42,113.45,62.88Z"/><path class="cls-7" d="M75.89,73.93l.77-1.36c.06-.1,5.61-9.87,6.51-11.54a4.57,4.57,0,0,1,4.34-2.61h.19l2.64,0,3.69,0h7a2.11,2.11,0,0,1,2,3.33c-.29.53-.61,1.1-.92,1.68-.61,1.12-1.24,2.28-1.73,3.11a3.49,3.49,0,0,1-2.89,1.65H88.82c-.83,1.49-3.17,5.73-3.17,5.73ZM91,64.24l.41,0a5.1,5.1,0,0,0,.62,0,.87.87,0,0,0,.24-.06L93,62.87h-.28a5.62,5.62,0,0,0-.92.07,1.85,1.85,0,0,0-.16.18Z"/><path class="cls-9" d="M99.6,66.08c.73-1.23,1.77-3.21,2.64-4.77.61-1.1.09-2-1.18-2H94.12c-2.15,0-4.3,0-6.44,0A3.73,3.73,0,0,0,84,61.45C83.05,63.15,77.45,73,77.45,73h7.66s2.69-4.86,3.18-5.73h9.19A2.53,2.53,0,0,0,99.6,66.08Zm-5.53-3.22c-.24.44-.63,1.12-1,1.83a1.12,1.12,0,0,1-.83.41A6,6,0,0,1,90.27,65a.45.45,0,0,1-.39-.62c.33-.59.66-1.18,1-1.77A1.36,1.36,0,0,1,91.7,62a7.27,7.27,0,0,1,2,0C94.25,62.08,94.33,62.39,94.07,62.86Z"/><path class="cls-7" d="M138,74c-.5,0-1,0-1.24-.6l-.26-.73.45-.26,5.63-10h-1.07c-.2.37-.4.75-.61,1.12-.6,1.12-1.23,2.27-1.72,3.09a3.49,3.49,0,0,1-2.89,1.65h-2.46L136.08,74h-7.69l-1.66-4-2.24,4h-9.76l.77-1.35c.06-.1,5.6-9.87,6.5-11.54a4.61,4.61,0,0,1,4.36-2.62h.18c1.85.05,27.89.06,37.69.06h4.92l-2.24,3.89h-2.52l-11.85,0h0c-.46.93-2.63,4.78-3.3,6-3.15,5.58-3.15,5.58-3.74,5.58h-.19Zm-8.17-9.7h.41a3.59,3.59,0,0,0,.62,0,.79.79,0,0,0,.23,0c.27-.47.53-.92.74-1.3h-.28a7,7,0,0,0-.92.06,1.26,1.26,0,0,0-.16.19C130.29,63.51,130.08,63.89,129.87,64.27Z"/><path class="cls-9" d="M126.51,59.34a3.72,3.72,0,0,0-3.7,2.14c-.92,1.7-6.52,11.55-6.52,11.55H124l2.9-5.24L129,73h5.75l-2.2-5.72h3.77a2.56,2.56,0,0,0,2.12-1.21c.71-1.19,1.72-3.1,2.57-4.65h2.05c.43,0,1,.12.74.66L137.66,73s7.82,0,7.82,0,5.71-10,6.22-11a.78.78,0,0,1,.84-.51l13.85,0,1.19-2.08C162.35,59.4,128.66,59.4,126.51,59.34Zm6.4,3.54c-.24.44-.63,1.13-1,1.83a1.16,1.16,0,0,1-.83.42,5.81,5.81,0,0,1-1.94-.07.45.45,0,0,1-.39-.62c.33-.59.66-1.18,1-1.77a1.34,1.34,0,0,1,.82-.63,7.27,7.27,0,0,1,2,0C133.09,62.11,133.17,62.42,132.91,62.88Z"/><path class="cls-7" d="M48.57,73.92l-7.69,0H30.82l-1.67-4L26.91,73.9H2.7L4.94,70H19.31s0,0,.08-.1.59-1,1.05-1.82l.42-.77h0C22.15,65.09,24,61.9,24.43,61a4.59,4.59,0,0,1,4.35-2.61H29l2.64,0H42.32a2.31,2.31,0,0,1,2.08,1,1.78,1.78,0,0,1,.22.58,4.53,4.53,0,0,1,3.68-1.61h.18c.89,0,1.77,0,2.65,0H61.84a2.1,2.1,0,0,1,2,3.32l-2.43,4.37H52l1.82-3.26h-.29a7.26,7.26,0,0,0-.92.07,1.34,1.34,0,0,0-.16.19c-.8,1.39-1.58,2.8-2.36,4.21-.53,1-1.07,1.92-1.61,2.88a2.42,2.42,0,0,0,.33,0h.3c.51,0,.65-.08.79-.35.3-.56.69-1.25,1.05-1.89l.74-1.33h9.38l-.75,1.35c-.66,1.18-1.31,2.36-2,3.55a4.21,4.21,0,0,1-3.87,2.3ZM37.16,70h1.78l1.21-2.14a3.72,3.72,0,0,1-1.39.32H36.32C36.56,68.71,37.16,70,37.16,70Zm-4.87-5.8.42,0a5.32,5.32,0,0,0,.62,0,.68.68,0,0,0,.23-.06c.27-.46.53-.92.74-1.29H34a5.79,5.79,0,0,0-.92.07,2.26,2.26,0,0,0-.15.18C32.72,63.46,32.51,63.84,32.29,64.21Z"/><path class="cls-9" d="M52.22,67.6c-.45.82-1.07,1.92-1.52,2.75a1.77,1.77,0,0,1-1.9.81,3.1,3.1,0,0,1-.7-.13c-.89-.28-.88-.45-.49-1.14,1.36-2.41,2.68-4.84,4-7.23a1.35,1.35,0,0,1,.82-.64,7.27,7.27,0,0,1,2,0c.52.08.6.39.34.86-.43.78-.86,1.56-1.3,2.34h7.3L63,61.32c.61-1.1.09-2-1.18-2H54.9c-2.15,0-4.3,0-6.44,0a3.73,3.73,0,0,0-3.71,2.14c-1.71,3.17-3.51,6.29-5.26,9.44H37c-.43,0-.53-.18-.71-.57l-1-2.09-.39-1h3.78a2.54,2.54,0,0,0,2.11-1.21c.74-1.23,1.77-3.2,2.64-4.76.61-1.1.09-2-1.18-2H35.38c-2.15,0-4.29,0-6.44,0a3.72,3.72,0,0,0-3.71,2.13c-.5.93-2.38,4.26-4,7.11h0c-.52.93-1.08,1.87-1.09,1.87a.9.9,0,0,1-.84.51l-13.84,0L4.27,73H26.38s2.05-3.73,2.89-5.24L31.43,73H40.6c4.63,0,9.26,0,13.89,0a3.3,3.3,0,0,0,3.07-1.82c.65-1.19,1.3-2.38,2-3.56ZM31.15,64.4l1-1.77A1.36,1.36,0,0,1,33,62a6.84,6.84,0,0,1,2,0c.53.08.6.39.35.85l-1,1.83a1.14,1.14,0,0,1-.83.42A5.75,5.75,0,0,1,31.54,65S31,64.94,31.15,64.4Z"/><path class="cls-7" d="M59.62,73.91A2,2,0,0,1,57.88,73a1.94,1.94,0,0,1,0-2l1-1.66a1.41,1.41,0,0,1,1.35-.74h.16l4.68,0h2.68a1,1,0,0,1,.34,0l1.09.27-.63,1.3a.44.44,0,0,0,.14-.13c.33-.52.64-1.06.95-1.63h-6a2.51,2.51,0,0,1-2.17-1.14A2.34,2.34,0,0,1,61.39,65a39.28,39.28,0,0,1,2.46-4.35,5,5,0,0,1,4.28-2.22H81.51a2.17,2.17,0,0,1,1.86,1.07,2.2,2.2,0,0,1,.13,2.13c-.33.64-.69,1.26-1,1.88a1.32,1.32,0,0,1-1.09.66H72l.75-1.31a.61.61,0,0,0-.18.18c-.24.42-.48.83-.71,1.25h6.36a2.81,2.81,0,0,1,1.07.18,2,2,0,0,1,1,2.89l-.16.3c-.79,1.44-1.58,2.87-2.4,4.29a4,4,0,0,1-3.53,2H59.62Z"/><path class="cls-9" d="M78.9,65.31a2.25,2.25,0,0,0-.74-.12H70.32c.07-.16.1-.27.15-.37.42-.74.83-1.49,1.26-2.23a1.94,1.94,0,0,1,1.91-.83c.4.08.52.34.33.71s-.26.46-.45.79h7.84a.44.44,0,0,0,.3-.21c.36-.61.71-1.22,1-1.84a1.36,1.36,0,0,0-1.17-1.88c-4.46,0-8.92,0-13.38,0a4.15,4.15,0,0,0-3.54,1.82,37.57,37.57,0,0,0-2.4,4.24,1.46,1.46,0,0,0,1.42,2.15h7.53c-.62,1.09-1.13,2.08-1.73,3a1.48,1.48,0,0,1-1.4.65c-.57,0-.8-.41-.55-.93l.36-.76H65l-4.77,0s-.49,0-.63.28l-.93,1.61A1,1,0,0,0,59.62,73c4.7,0,9.86,0,14.56,0a3,3,0,0,0,2.74-1.51c.88-1.5,1.72-3,2.56-4.56A1.1,1.1,0,0,0,78.9,65.31Z"/><g class="cls-10"><path class="cls-11" d="M107.2,72.1h-8c-.21,0-.37-.06-.42-.16s-.07-.3.09-.59L100.73,68c1.15-2,2.3-4.08,3.41-6.14a2.82,2.82,0,0,1,2.75-1.66H107l2.69,0,3.77,0h6.94a.75.75,0,0,1,.52.13.71.71,0,0,1-.13.49l-1.7,3c-1.26,2.27-2.53,4.54-3.77,6.82a2.4,2.4,0,0,1-2.28,1.35ZM112.12,61a7.59,7.59,0,0,0-1.17.09,2.21,2.21,0,0,0-1.48,1.08q-1.22,2.13-2.4,4.27c-.55,1-1.1,2-1.66,3a1.69,1.69,0,0,0-.28,1.52,1.81,1.81,0,0,0,1.32.91,3.77,3.77,0,0,0,.89.1,3.26,3.26,0,0,0,2.88-1.41c.91-1.67,1.8-3.27,2.69-4.87l1.33-2.39a1.52,1.52,0,0,0,.13-1.45,1.4,1.4,0,0,0-1.13-.74A8.32,8.32,0,0,0,112.12,61Z"/><path class="cls-12" d="M79,72.09c1.58-2.77,5-8.89,5.76-10.22a2.81,2.81,0,0,1,2.74-1.66h.14c.9,0,1.79,0,2.69,0h10.72c.33,0,.49.08.51.13s0,.21-.13.49l-.93,1.7c-.6,1.1-1.22,2.25-1.69,3a1.63,1.63,0,0,1-1.33.76H87.75s-2.49,4.49-3.17,5.73ZM92.75,61a9.36,9.36,0,0,0-1.18.08,2.22,2.22,0,0,0-1.48,1.09c-.34.58-.67,1.18-1,1.77l0,.07,0,.07a1.38,1.38,0,0,0,.1,1.18,1.48,1.48,0,0,0,1,.65,6.29,6.29,0,0,0,1.29.12,7.7,7.7,0,0,0,.92-.06,2,2,0,0,0,1.44-.81l1.07-1.89A1.48,1.48,0,0,0,95,61.84a1.4,1.4,0,0,0-1.13-.74A6.75,6.75,0,0,0,92.75,61Z"/><path class="cls-13" d="M139.22,72.12c1.87-3.16,5.4-9.6,5.43-9.68a1.3,1.3,0,0,0-.09-1.26,1.65,1.65,0,0,0-1.49-.65h-2.59l-1.14,2.07c-.59,1.1-1.21,2.23-1.68,3a1.62,1.62,0,0,1-1.33.77h-5.11l2.21,5.73h-3.82L127,65.69l-3.55,6.43h-5.57c1.57-2.77,5-8.89,5.76-10.21a2.8,2.8,0,0,1,2.75-1.66h.13c1.88,0,27.93.06,37.74.06H166l-.15.26H152.54a1.66,1.66,0,0,0-1.66,1c-.43.9-4.82,8.66-5.91,10.51ZM131.59,61a7.72,7.72,0,0,0-1.18.09,2.24,2.24,0,0,0-1.48,1.08c-.34.59-1,1.84-1,1.84l0,.08a1.36,1.36,0,0,0,.1,1.17,1.43,1.43,0,0,0,1,.65,6.25,6.25,0,0,0,1.29.13,5.21,5.21,0,0,0,.92-.07,1.92,1.92,0,0,0,1.43-.81c.44-.75.83-1.45,1.08-1.89a1.51,1.51,0,0,0,.12-1.45,1.4,1.4,0,0,0-1.13-.74A8.17,8.17,0,0,0,131.59,61Z"/><path class="cls-14" d="M48.57,72.07l-7.68,0H32l-2.65-6.41-3.55,6.42h-20L6,71.78h2.1c4,0,6.32,0,11.22,0a1.82,1.82,0,0,0,1.61-.93c.11-.18.56-.93,1-1.72L22,69c1.54-2.71,3.48-6.16,4-7.12a2.82,2.82,0,0,1,2.75-1.66h.14c.89,0,1.78,0,2.68,0H42.32a.75.75,0,0,1,.52.13s0,.21-.13.49c-.31.55-.63,1.14-1,1.74-.6,1.09-1.21,2.22-1.68,3a1.63,1.63,0,0,1-1.32.76H33.65l.86,2.23c.2.45.88,1.92,1,2.15A1.58,1.58,0,0,0,37,71.79h3l.27-.54L42.15,68c1.14-2,2.29-4.07,3.4-6.12A2.8,2.8,0,0,1,48.3,60.2h.14c.89,0,1.79,0,2.69,0H61.84c.33,0,.49.09.51.13s0,.22-.13.49l-1.9,3.43H55.1l.55-1a1.52,1.52,0,0,0,.13-1.45,1.42,1.42,0,0,0-1.14-.74A8.05,8.05,0,0,0,53.53,61a7.81,7.81,0,0,0-1.18.09,2.26,2.26,0,0,0-1.48,1.08c-.8,1.4-1.58,2.82-2.37,4.23l-1.68,3a1.7,1.7,0,0,0-.28,1.51,1.88,1.88,0,0,0,1.29,1,3.57,3.57,0,0,0,.76.15l.19,0h.33a2.5,2.5,0,0,0,2.39-1.3c.3-.56.68-1.24,1-1.88l.22-.39H58c-.41.74-.82,1.48-1.22,2.22a2.4,2.4,0,0,1-2.28,1.35ZM34,61a9.2,9.2,0,0,0-1.17.08,2.28,2.28,0,0,0-1.49,1.09l-1,1.77,0,.07,0,.07a1.38,1.38,0,0,0,.09,1.18,1.48,1.48,0,0,0,1,.65,6.39,6.39,0,0,0,1.3.12,5.65,5.65,0,0,0,.91-.06,2,2,0,0,0,1.44-.81c.43-.76.83-1.45,1.07-1.89a1.52,1.52,0,0,0,.13-1.45,1.4,1.4,0,0,0-1.13-.74A6.87,6.87,0,0,0,34,61Z"/><path class="cls-15" d="M68.64,72.08a2.35,2.35,0,0,0,1.54-1c.44-.68.83-1.38,1.24-2.12.16-.3.34-.62.52-.94l.77-1.35H63.62a.71.71,0,0,1-.62-.28.54.54,0,0,1,0-.55,34.39,34.39,0,0,1,2.33-4.14,3.25,3.25,0,0,1,2.79-1.42H81.53c.14,0,.24.14.28.2a.43.43,0,0,1,.07.35c-.27.53-.56,1-.86,1.56H75a1.37,1.37,0,0,0-.11-.74,1.39,1.39,0,0,0-1-.74,2,2,0,0,0-.49-.05,2.89,2.89,0,0,0-2.41,1.31q-.64,1.13-1.26,2.25a2.53,2.53,0,0,0-.16.36L69,66.08h9.17a1,1,0,0,1,.39,0,.27.27,0,0,1,.17.13.31.31,0,0,1,0,.2l-.17.31C77.73,68.19,77,69.62,76.14,71a2.14,2.14,0,0,1-2,1.06H68.64Zm-9,0a.41.41,0,0,1-.19,0s0-.08.09-.18.56-1,.8-1.38l4.72,0h1.44a1.5,1.5,0,0,0,.17,1,1.53,1.53,0,0,0,1,.69Z"/></g><rect class="cls-1" x="3.94" y="1.82" width="167.98" height="75.99"/></svg>